<svg width="50" height="50" viewBox="0 0 50 50" fill="none" xmlns="http://www.w3.org/2000/svg">
<path d="M49.9837 24.0798C49.9747 23.8425 49.9622 23.6052 49.9477 23.3698V23.3608C49.7787 20.7598 49.2126 18.2684 48.3085 15.9442V15.9423C48.0783 15.3473 47.8249 14.7649 47.55 14.1934C46.8076 14.3066 46.1157 14.5815 45.5151 14.9807C45.2293 15.1677 44.9634 15.3852 44.7223 15.626C44.129 15.2755 43.4981 14.9807 42.8384 14.7488C41.7114 14.3499 40.4997 14.134 39.2361 14.134C38.9144 14.134 38.5944 14.1485 38.2797 14.1773C38.2438 14.1792 38.206 14.1828 38.1701 14.1863C37.5931 13.3791 36.9442 12.626 36.2323 11.9394C34.5209 12.6151 33.2611 14.1898 33.0379 16.0827C31.163 17.3931 29.7233 19.2822 28.9754 21.4913C28.927 21.7665 28.8478 22.0269 28.7436 22.2716C28.1826 23.6 26.8686 24.5311 25.3356 24.5311C25.2313 24.5311 25.1287 24.5275 25.028 24.5166C25.1521 26.3733 25.6965 28.113 26.5646 29.646C25.0103 29.1395 23.3556 28.8666 21.6345 28.8666C17.5181 28.8666 13.7666 30.4304 10.9427 32.9955C9.18646 30.3675 8.16369 27.2094 8.16369 23.8137C8.16369 14.6751 15.5732 7.26747 24.7118 7.26747C26.0995 7.26747 27.4459 7.43838 28.7329 7.76171C28.9234 7.80662 29.114 7.85887 29.3026 7.91276C29.52 7.95412 29.7448 7.97563 29.9748 7.97563C32.0184 7.97563 33.6759 6.32008 33.6759 4.27644C33.6759 2.62987 32.6009 1.23506 31.1143 0.753336C31.1124 0.753336 31.1124 0.753336 31.1108 0.753336C30.9418 0.711968 30.7747 0.6706 30.6057 0.631137C30.6021 0.627599 30.5986 0.627599 30.5931 0.627599C28.7944 0.217727 26.9233 0 25 0C11.1934 0 0 11.1931 0 25C0 31.2553 2.2992 36.9788 6.09909 41.3628C10.6828 46.6527 17.4503 50 25 50C29.5208 50 33.763 48.7992 37.4227 46.6998C44.4245 42.6833 49.2943 35.3728 49.9268 26.8831C49.9431 26.7571 49.9551 26.6324 49.9551 26.5118C49.9856 26.0103 50 25.507 50 25C50 24.6927 49.9946 24.3852 49.9837 24.0798Z" fill="url(#paint0_linear_539_67)"/>
<path d="M49.9546 26.5119C49.4386 35.1597 44.5262 42.6248 37.4223 46.6998C33.7625 48.7992 29.5204 50 24.9995 50C17.4498 50 10.6823 46.653 6.09863 41.363C6.81414 38.0789 8.54317 35.176 10.9428 32.9955C13.7667 30.4304 17.5182 28.8666 21.6346 28.8666C23.3565 28.8666 25.0121 29.1398 26.5669 29.6466C26.6597 29.6466 27.2157 30.6713 27.3085 30.7989C27.5875 31.1827 27.8891 31.5501 28.2108 31.8987C28.8547 32.596 29.5803 33.2173 30.3684 33.7458C34.0361 36.2056 39.145 36.4263 43.2465 35.0155C44.6614 34.5288 45.9841 33.5627 47.0208 32.4906C48.5947 30.8631 49.6338 28.7534 49.9546 26.5119Z" fill="url(#paint1_linear_539_67)"/>
<path d="M33.6767 4.27642C33.6767 6.32034 32.0193 7.97561 29.9756 7.97561C29.7456 7.97561 29.5208 7.95411 29.3034 7.91274C29.1145 7.85886 28.9243 7.8066 28.7335 7.7617C27.4464 7.4381 26.1001 7.26745 24.7123 7.26745C15.5738 7.26745 8.16423 14.6751 8.16423 23.8136C8.16423 27.2091 9.18701 30.3675 10.9432 32.9955C8.54362 35.1757 6.81432 38.0789 6.09909 41.363C2.2992 36.9788 0 31.2556 0 25.0003C0 11.1936 11.1931 0.000259399 25 0.000259399C26.9234 0.000259399 28.7944 0.217715 30.594 0.627586C30.5994 0.627586 30.6029 0.627587 30.6065 0.631125C30.7755 0.670588 30.9426 0.711955 31.1116 0.753323C31.1135 0.753323 31.1135 0.753323 31.1151 0.753323C32.6017 1.23505 33.6767 2.62986 33.6767 4.27642Z" fill="url(#paint2_linear_539_67)"/>
<path d="M49.9476 23.3608C49.7084 21.7591 49.1208 20.2726 48.2616 18.9801C48.2616 18.9782 48.2597 18.9766 48.2597 18.9747C48.0583 18.6709 47.8408 18.3797 47.6109 18.0994C46.8036 17.1145 45.8258 16.2749 44.7222 15.626C44.963 15.3852 45.2292 15.1677 45.515 14.9807C46.1153 14.5817 46.8074 14.3066 47.5499 14.1934C47.8248 14.7649 48.0784 15.3473 48.3084 15.9423V15.9442C49.2125 18.2684 49.7786 20.7598 49.9476 23.3608Z" fill="url(#paint3_linear_539_67)"/>
<path d="M49.9999 25C49.9999 25.507 49.9855 26.0102 49.955 26.5118C49.955 27.2034 49.6534 28.0087 49.4208 28.6513C49.1701 29.3434 48.8481 30.0094 48.4622 30.6359C47.6977 31.8769 46.682 32.9598 45.4929 33.803C42.3062 36.0627 37.8673 36.2543 34.1665 35.4204C31.0416 34.7163 28.3172 32.6011 26.6889 29.858C26.6473 29.7878 26.6062 29.7173 26.5662 29.6463C25.698 28.1129 25.1534 26.373 25.0293 24.5161C25.13 24.527 25.2326 24.5305 25.3366 24.5305C26.8699 24.5305 28.1839 23.5995 28.7448 22.271C28.8491 22.0266 28.9282 21.7659 28.9767 21.4908C29.7246 19.2816 31.1643 17.3923 33.0392 16.0821C34.5203 15.0469 36.2746 14.3708 38.171 14.1857C38.207 14.1822 38.2448 14.1787 38.2807 14.1768C38.5953 14.1479 38.9154 14.1335 39.2371 14.1335C40.5007 14.1335 41.7124 14.3493 42.8394 14.7483C43.4991 14.9802 44.13 15.2749 44.7233 15.6255C45.8269 16.2743 46.8048 17.1139 47.612 18.0988C47.842 18.3792 48.0597 18.6704 48.2627 18.9796C49.1219 20.272 49.7098 21.7586 49.9487 23.3602V23.3692C49.9632 23.6046 49.9757 23.8419 49.9847 24.0793C49.9945 24.3852 49.9999 24.6927 49.9999 25Z" fill="url(#paint4_linear_539_67)"/>
<path d="M38.1704 14.1863C36.274 14.3714 34.5197 15.0474 33.0386 16.0827C33.2615 14.1898 34.5216 12.6154 36.2326 11.9394C36.9446 12.626 37.5934 13.3791 38.1704 14.1863Z" fill="url(#paint5_linear_539_67)"/>
<path d="M47.0212 32.4904C45.9846 33.5624 44.6619 34.5286 43.2469 35.0152C39.1455 36.4261 34.0365 36.2053 30.3689 33.7456C29.5807 33.217 28.8551 32.5957 28.2112 31.8984C27.8892 31.5498 27.5877 31.1826 27.309 30.7986C27.2162 30.671 26.6604 29.6463 26.5674 29.6463C25.1916 29.1978 23.7369 28.9332 22.2275 28.878C21.7814 33.7175 26.4264 38.0098 31.0727 39.9026C34.2202 41.1616 34.43 45.778 32.7514 48.716C32.7399 48.7385 32.7277 48.76 32.7163 48.7826C34.3666 48.2476 35.943 47.5484 37.4227 46.6995C44.5266 42.6245 49.4391 35.1594 49.9551 26.5116C49.6339 28.7533 48.5948 30.8631 47.0212 32.4904Z" fill="url(#paint6_linear_539_67)"/>
<path d="M28.7336 7.76171C28.9241 7.80662 29.1146 7.85887 29.3032 7.91276C29.5207 7.95412 29.7455 7.97563 29.9754 7.97563C32.0191 7.97563 33.6765 6.32008 33.6765 4.27644C33.6765 2.62987 32.6015 1.23506 31.115 0.753336C31.1131 0.753336 31.1131 0.753336 31.1114 0.753336C30.9424 0.711968 30.7753 0.6706 30.6063 0.631137C30.6028 0.627599 30.5992 0.627599 30.5938 0.627599C28.7945 0.217727 26.9234 0 25.0001 0C13.2453 0 3.38657 8.11415 0.715332 19.0465C0.965174 18.7191 1.22046 18.3955 1.48527 18.0795C6.78094 11.8212 14.7764 7.15833 22.8441 7.37524C23.4578 7.30611 24.0802 7.26747 24.7124 7.26747C26.1002 7.26747 27.4465 7.43838 28.7336 7.76171Z" fill="url(#paint7_linear_539_67)"/>
<path d="M47.611 18.0994C46.8037 17.1145 45.8259 16.2748 44.7223 15.626C44.129 15.2755 43.4981 14.9807 42.8384 14.7488C41.7114 14.3499 40.4997 14.134 39.2361 14.134C38.9144 14.134 38.5943 14.1485 38.2797 14.1773C38.2438 14.1792 38.206 14.1828 38.17 14.1863C36.2736 14.3714 34.5193 15.0474 33.0382 16.0827C31.1633 17.3931 29.7236 19.2822 28.9757 21.4913C28.9272 21.7665 28.8481 22.0269 28.7438 22.2716C28.1848 23.5954 26.8776 24.5243 25.3511 24.5305C27.3487 24.9616 29.5821 24.4176 30.4429 22.6962C33.1708 16.611 39.8857 15.7713 45.5513 17.6601C46.6015 18.0471 47.5778 18.5955 48.4441 19.2721C48.3836 19.1747 48.3248 19.0759 48.2612 18.9804C48.0587 18.6709 47.8409 18.3797 47.611 18.0994Z" fill="url(#paint8_linear_539_67)"/>
<path d="M1.61084 33.8463C2.6611 36.6215 4.19064 39.1613 6.09902 41.363C6.77071 38.2795 8.33644 35.532 10.5115 33.4032C7.61059 34.03 4.60241 34.1484 1.61084 33.8463Z" fill="url(#paint9_linear_539_67)"/>
<defs>
<linearGradient id="paint0_linear_539_67" x1="5.44318e-05" y1="25" x2="49.9999" y2="25" gradientUnits="userSpaceOnUse">
<stop stop-color="#D26EE0"/>
<stop offset="0.5" stop-color="#924ACA"/>
<stop offset="1" stop-color="#3A3E9C"/>
</linearGradient>
<linearGradient id="paint1_linear_539_67" x1="-2.88398" y1="50.6237" x2="46.0316" y2="30.4292" gradientUnits="userSpaceOnUse">
<stop stop-color="#D26EE0"/>
<stop offset="0.5" stop-color="#924ACA"/>
<stop offset="1" stop-color="#3A3E9C"/>
</linearGradient>
<linearGradient id="paint2_linear_539_67" x1="34.1772" y1="-5.11168" x2="-5.31409" y2="37.2219" gradientUnits="userSpaceOnUse">
<stop stop-color="#D26EE0"/>
<stop offset="0.5" stop-color="#924ACA"/>
<stop offset="1" stop-color="#3A3E9C"/>
</linearGradient>
<linearGradient id="paint3_linear_539_67" x1="47.3349" y1="9.42419" x2="47.3349" y2="19.1837" gradientUnits="userSpaceOnUse">
<stop stop-color="#D26EE0"/>
<stop offset="0.5" stop-color="#924ACA"/>
<stop offset="1" stop-color="#3A3E9C"/>
</linearGradient>
<linearGradient id="paint4_linear_539_67" x1="23.7149" y1="17.919" x2="47.7612" y2="29.7738" gradientUnits="userSpaceOnUse">
<stop stop-color="#D26EE0"/>
<stop offset="0.5" stop-color="#924ACA"/>
<stop offset="1" stop-color="#3A3E9C"/>
</linearGradient>
<linearGradient id="paint5_linear_539_67" x1="35.6045" y1="9.4242" x2="35.6045" y2="19.1837" gradientUnits="userSpaceOnUse">
<stop stop-color="#D26EE0"/>
<stop offset="0.5" stop-color="#924ACA"/>
<stop offset="1" stop-color="#3A3E9C"/>
</linearGradient>
<linearGradient id="paint6_linear_539_67" x1="33.7163" y1="39.3221" x2="37.456" y2="22.1194" gradientUnits="userSpaceOnUse">
<stop stop-opacity="0"/>
<stop offset="1"/>
</linearGradient>
<linearGradient id="paint7_linear_539_67" x1="8.19364" y1="14.8548" x2="38.4104" y2="-5.63879" gradientUnits="userSpaceOnUse">
<stop stop-color="#E8FFFF" stop-opacity="0"/>
<stop offset="1" stop-color="white"/>
</linearGradient>
<linearGradient id="paint8_linear_539_67" x1="24.3271" y1="27.9885" x2="58.4333" y2="6.54749" gradientUnits="userSpaceOnUse">
<stop stop-color="#E8FFFF" stop-opacity="0"/>
<stop offset="1" stop-color="white"/>
</linearGradient>
<linearGradient id="paint9_linear_539_67" x1="6.05035" y1="31.6832" x2="6.15007" y2="49.6338" gradientUnits="userSpaceOnUse">
<stop stop-opacity="0"/>
<stop offset="1"/>
</linearGradient>
</defs>
</svg>
